<svg xmlns="http://www.w3.org/2000/svg" viewBox="0 0 100.25 97.78">
    <defs>
        <style>.cls-1{fill:#1b1f23;fill-rule:evenodd;}</style>
    </defs>
    <g id="Layer_2" data-name="Layer 2">
        <g id="Layer_1-2" data-name="Layer 1">
            <path class="cls-1" d="M32.22,3.1A47.43,47.43,0,0,0,2.93,32.66C-6.94,62,9.28,89.35,34.27,97.68c2.51.44,3.45-1.06,3.45-2.38s-.06-5.14-.06-9.34c-12.6,2.32-15.86-3.07-16.86-5.88-.56-1.45-3-5.89-5.14-7.09-1.75-.93-4.26-3.25-.06-3.32,4-.06,6.77,3.64,7.71,5.14C27.82,82.39,35,80.26,37.91,79a10.58,10.58,0,0,1,3.19-6.71C30,71,18.3,66.67,18.3,47.49A19.53,19.53,0,0,1,23.43,34c-.5-1.25-2.25-6.39.5-13.28,0,0,4.2-1.32,13.79,5.14a47.29,47.29,0,0,1,25.06,0c9.59-6.52,13.79-5.14,13.79-5.14,2.75,6.89,1,12,.5,13.28a19.43,19.43,0,0,1,5.14,13.47c0,19.24-11.72,23.5-22.87,24.75,1.81,1.57,3.38,4.58,3.38,9.28,0,6.7-.06,12.09-.06,13.78,0,1.32.94,2.88,3.44,2.38a50.2,50.2,0,0,0,34.15-47.55C100.25,16.64,67.46-9.15,32.22,3.1Z" />
        </g>
    </g>
</svg>