<svg xmlns="http://www.w3.org/2000/svg" viewBox="0 0 100 97.52"><defs><style>.cls-1{fill:#110903;fill-rule:evenodd;}</style></defs><g id="Layer_2" data-name="Layer 2"><g id="Layer_2-2" data-name="Layer 2"><path id="github" class="cls-1" d="M74.83,6.57A49.1,49.1,0,0,1,98,35.88,50.1,50.1,0,0,1,65.84,97.43c-2.54.49-3.44-1.07-3.44-2.4,0-1.64.06-7,.06-13.72a11.94,11.94,0,0,0-3.39-9.26c11.13-1.23,22.82-5.46,22.82-24.66A19.28,19.28,0,0,0,76.75,34a17.93,17.93,0,0,0-.49-13.22s-4.19-1.35-13.74,5.12a47.45,47.45,0,0,0-25,0c-9.55-6.47-13.75-5.12-13.75-5.12A17.93,17.93,0,0,0,23.25,34,19.34,19.34,0,0,0,18.1,47.39c0,19.15,11.67,23.44,22.78,24.7a10.71,10.71,0,0,0-3.18,6.69,10.66,10.66,0,0,1-14.5-4.06l-.05-.1a10.51,10.51,0,0,0-7.66-5.15s-4.88-.06-.34,3a13.27,13.27,0,0,1,5.55,7.31s2.93,9.72,16.84,6.7c0,4.17.07,7.32.07,8.51s-.91,2.86-3.41,2.4A50,50,0,1,1,74.83,6.57Z"/></g></g></svg>