<svg xmlns="http://www.w3.org/2000/svg" viewBox="0 0 100 99.88"><defs><style>.cls-1{fill:#e74d89;}.cls-2{fill:#b2215a;}</style></defs><g id="Layer_2" data-name="Layer 2"><g id="Layer_1-2" data-name="Layer 1"><path class="cls-1" d="M50,3.32A46.62,46.62,0,1,1,3.36,50,46.6,46.6,0,0,1,50,3.32Z"/><path class="cls-2" d="M50,99.88a49.94,49.94,0,1,1,50-50,50,50,0,0,1-50,50ZM92.15,56.76a62.91,62.91,0,0,0-26.6-1.84,182.71,182.71,0,0,1,8.28,30.39A42.41,42.41,0,0,0,92.15,56.76ZM66.68,89.26a178.15,178.15,0,0,0-9.1-32.35.74.74,0,0,1-.28.08c-24.1,8.4-32.73,25.08-33.51,26.64a42.52,42.52,0,0,0,26.21,9,41.67,41.67,0,0,0,16.68-3.36ZM18.28,78.52c1-1.64,12.7-21,34.73-28.17.54-.19,1.13-.35,1.68-.51-1.06-2.42-2.23-4.84-3.48-7.22A157.94,157.94,0,0,1,7.3,48.67c0,.43,0,.86,0,1.29a42.67,42.67,0,0,0,11,28.56ZM8.2,41.25a157.78,157.78,0,0,0,39.5-5.2A272.62,272.62,0,0,0,31.87,11.41,42.78,42.78,0,0,0,8.2,41.25ZM40,8.52a223.17,223.17,0,0,1,15.94,25c15.19-5.71,21.6-14.3,22.38-15.39A42.58,42.58,0,0,0,50,7.34,43.86,43.86,0,0,0,40,8.52ZM83.05,23c-.9,1.21-8,10.39-23.83,16.83,1,2,2,4.11,2.85,6.18.31.74.63,1.48.94,2.18,14.22-1.79,28.32,1.1,29.72,1.37A42.45,42.45,0,0,0,83.05,23Z"/></g></g></svg>