<svg xmlns="http://www.w3.org/2000/svg" xmlns:xlink="http://www.w3.org/1999/xlink" viewBox="0 0 100 100"><defs><style>.cls-1,.cls-8{fill:#fff;}.cls-2{fill:#202830;}.cls-3{fill:#00e054;}.cls-4{mask:url(#mask);}.cls-5{fill:#40bcf4;}.cls-6{mask:url(#mask-2-2);}.cls-7{fill:#ff8000;}.cls-8{fill-rule:evenodd;}</style><mask id="mask" x="59.77" y="36" width="28.03" height="28.28" maskUnits="userSpaceOnUse"><g id="mask-2"><rect id="path-1" class="cls-1" x="61.83" y="36" width="25.97" height="28.28"/></g></mask><mask id="mask-2-2" x="12.2" y="36" width="28.03" height="28.28" maskUnits="userSpaceOnUse"><g id="mask-4"><rect id="path-3" class="cls-1" x="12.2" y="36" width="25.97" height="28.28"/></g></mask></defs><g id="Layer_2" data-name="Layer 2"><g id="Layer_2-2" data-name="Layer 2"><g id="mask-4-2" data-name="mask-4"><rect id="path-3-2" data-name="path-3" class="cls-1" x="11.96" y="36.03" width="26" height="28"/></g><g id="mask-2-3" data-name="mask-2"><rect id="path-1-2" data-name="path-1" class="cls-1" x="61.96" y="36.03" width="26" height="28"/></g><g id="letterboxd-decal-dots-pos-rgb"><circle id="Circle" class="cls-2" cx="50" cy="50" r="50"/><g id="dots-neg"><g id="Dots"><ellipse id="Green" class="cls-3" cx="50" cy="49.99" rx="14.02" ry="13.99"/><g id="Blue"><g class="cls-4"><ellipse class="cls-5" cx="73.78" cy="49.99" rx="14.02" ry="13.99"/></g></g><g id="Orange"><g class="cls-6"><ellipse class="cls-7" cx="26.22" cy="49.99" rx="14.02" ry="13.99"/></g></g><path id="Overlap" class="cls-8" d="M38.11,57.4a14,14,0,0,1,0-14.82,14,14,0,0,1,0,14.82Z"/><path id="Overlap-2" data-name="Overlap" class="cls-8" d="M61.89,42.58a14,14,0,0,1,0,14.82,14,14,0,0,1,0-14.82Z"/></g></g></g></g></g></svg>