<svg xmlns="http://www.w3.org/2000/svg" viewBox="0 0 100 100"><defs><style>.cls-1{fill:#110903;}</style></defs><g id="Layer_2" data-name="Layer 2"><g id="Layer_2-2" data-name="Layer 2"><path id="dribbble" class="cls-1" d="M49.93,100A50,50,0,1,1,100,50,50,50,0,0,1,49.93,100ZM92.16,56.84A62.79,62.79,0,0,0,65.52,55a184.32,184.32,0,0,1,8.31,30.45A42.8,42.8,0,0,0,92.16,56.84ZM66.64,89.38A177.56,177.56,0,0,0,57.52,57l-.29.1c-24.12,8.39-32.78,25.1-33.55,26.67A42.79,42.79,0,0,0,66.64,89.38ZM18.16,78.62A67.82,67.82,0,0,1,52.92,50.44c.56-.18,1.12-.35,1.69-.51-1.08-2.43-2.24-4.86-3.47-7.25A157.8,157.8,0,0,1,7.19,48.76c0,.43,0,.87,0,1.31A42.49,42.49,0,0,0,18.16,78.62ZM8.07,41.32a159.88,159.88,0,0,0,39.54-5.21A271.79,271.79,0,0,0,31.75,11.42,42.86,42.86,0,0,0,8.07,41.32ZM39.91,8.54a226.74,226.74,0,0,1,16,25A48.37,48.37,0,0,0,78.28,18.12,42.76,42.76,0,0,0,39.91,8.54ZM83,23.06A57,57,0,0,1,59.16,39.9c1,2,2,4.1,2.83,6.18.32.74.63,1.48.92,2.21a100.19,100.19,0,0,1,29.78,1.37A42.47,42.47,0,0,0,83,23.06Z"/></g></g></svg>