<svg xmlns="http://www.w3.org/2000/svg" viewBox="0 0 100 100"><defs><style>.cls-1{fill:#ece9d4;}.cls-2{fill:#814910;}</style></defs><g id="Layer_2" data-name="Layer 2"><g id="Layer_2-2" data-name="Layer 2"><rect class="cls-1" width="100" height="100" rx="15"/><path class="cls-2" d="M73.83,14H67v7.22C56.46,6.58,34.79,11.27,28.74,25.71a34.43,34.43,0,0,0,.39,28.11C33.42,63.58,45.72,67.68,55.48,65a17.93,17.93,0,0,0,8.4-4.1A22.87,22.87,0,0,0,67,57.92a98.86,98.86,0,0,1-1,10.93c-.78,4.49-2.73,8.4-7,10.54C49.63,84.27,38.5,80.57,34.4,71H28c.39,6.25,3.71,10.35,9,12.88C43.18,87,49.82,87.4,56.46,86.23c8.59-1.37,14.25-6.25,16.2-14.84A50.88,50.88,0,0,0,73.83,62c.18-17.57,0-33.77,0-48ZM66.46,49a16.19,16.19,0,0,1-6.06,8.2,16.83,16.83,0,0,1-8.79,2.93c-.19,0-1.17,0-2.14,0a.22.22,0,0,1-.12,0c-7-.39-12.31-4.49-14.65-11.33a30.4,30.4,0,0,1-.59-17.18c2.15-8.4,8.21-13.48,15.82-13.68h.2c3.91-.4,7,1.36,8.2,1.75,4.1,2.15,7.23,6.25,8.6,11.92,1.36,5.86,1.56,11.72-.39,17.38Z"/></g></g></svg>