<svg xmlns="http://www.w3.org/2000/svg" viewBox="0 0 100 155.38"><defs><style>.cls-1{fill:#110903;}</style></defs><g id="Layer_2" data-name="Layer 2"><g id="Layer_2-2" data-name="Layer 2"><path class="cls-1" d="M99.85,3.56H85.61V18.61C63.64-11.91,18.47-2.14,5.86,28-2.28,47.5-1.87,67,6.67,86.56c9,20.35,34.59,28.89,54.93,23.2a37.26,37.26,0,0,0,17.5-8.55,47.89,47.89,0,0,0,6.51-6.1,207.31,207.31,0,0,1-2,22.79c-1.63,9.35-5.7,17.49-14.65,22C49.4,150,26.2,142.31,17.66,122.37H4.23C5,135.39,12,143.94,23,149.23c13,6.51,26.85,7.32,40.69,4.88,17.9-2.85,29.7-13,33.77-30.92,1.63-6.51,2-13,2.44-19.54.37-36.62-.08-70.39.08-100.09Zm-15.37,73a33.86,33.86,0,0,1-12.62,17.1,35.23,35.23,0,0,1-18.32,6.11c-.41,0-2.45.08-4.48,0a.45.45,0,0,1-.25,0C34.16,99,23.17,90.4,18.28,76.15c-4.07-11.81-4.07-24-1.22-35.83,4.48-17.51,17.1-28.09,33-28.5l.4,0c8.15-.81,14.66,2.85,17.1,3.67,8.55,4.47,15.07,13,17.92,24.83,2.85,12.21,3.25,24.43-.82,36.23Z"/></g></g></svg>