<svg xmlns="http://www.w3.org/2000/svg" viewBox="0 0 254 254">
    <defs>
        <style>.cls-1{fill:#110903;}.cls-2{fill:#f6de28;}</style>
    </defs>
    <g id="Layer_2" data-name="Layer 2">
        <g id="Layer_1-2" data-name="Layer 1">
            <rect class="cls-1" width="254" height="254" />
            <path class="cls-2" d="M116.38,131.32q-19.51,8.73-38,1-18.74-7.85-21.87-30.4T69.91,60.23q16.56-19.11,46.18-19.12a90,90,0,0,1,28,4.61A180.19,180.19,0,0,1,172.66,58q9.51,5,18.63,1.86,2-.78,2.94-1.08c1.44-.26,2.34.13,2.7,1.18s-.25,2.19-1.82,3.43q-7.05,5.1-14.21,10.05t-14,10.25q-2.46,2-5.4.09-8.82-6.47-24.36-13.53a75.45,75.45,0,0,0-31.43-7.06q-18.63,0-30.44,10.59T64,100.78q.54,16.43,14.37,25.54t35.39.68a4.72,4.72,0,0,1,3-.34,2.48,2.48,0,0,1,1.61,1.18,2,2,0,0,1,0,1.86A3.2,3.2,0,0,1,116.38,131.32Zm67,1.08a2.66,2.66,0,0,1-1.87.88,3.35,3.35,0,0,1-2.69-1.81,26.33,26.33,0,0,0-2.11-2.8q-8.23-8.23-14.22-3.33a1.43,1.43,0,0,0-.39,2.15,107.36,107.36,0,0,1,6.86,12.16,46.53,46.53,0,0,1,4.17,25.89A52.82,52.82,0,0,1,164.22,189a56.71,56.71,0,0,1-18.58,17,48.93,48.93,0,0,1-25,6.62q-17.36,0-29.9-8.19T77.15,180.93l1.77-8A80.92,80.92,0,0,1,81.07,165q3.54-10.09-.88-13.63a8.68,8.68,0,0,0-5.59-2c-2-.06-2.94-.87-2.94-2.4s1-2.34,2.94-2.4a26.46,26.46,0,0,1,5.3.58c1.89.4,3.66.72,5.29,1q10.49,2.26,16.28,8.48T103.23,175q-3.83,13-1,22.06t18.09,9.9q13.44.6,20.89-7.55T150.59,178q1.36-9.21-4-20.59a121.76,121.76,0,0,0-14.41-22.85Q111.66,108.67,116,97.74t19-24v-.1a2.19,2.19,0,0,1,1.57-.49A2.13,2.13,0,0,1,139,75.53a2.62,2.62,0,0,1-.88,1.86q-8.34,8.82-.89,17.75,5.3,6.47,10.45,12.79t9.56,12.5a1.53,1.53,0,0,0,2.64.1q4.13-5.19,8.34-10.34l8.53-10.44c1.18-1.44,2.45-1.61,3.82-.49q3.54,2.94,6.91,5.93t6.92,5.93c.59.46,1.24,1,2,1.67a2.8,2.8,0,0,1,1.08,2.06,4,4,0,0,1-1.33,2.3c-.88.95-1.68,1.81-2.4,2.6Z" />
        </g>
    </g>
</svg>