<svg xmlns="http://www.w3.org/2000/svg" viewBox="0 0 254 254">
    <defs>
        <style>.cls-1{fill:#f6de28;}</style>
    </defs>
    <g id="Layer_2" data-name="Layer 2">
        <g id="Layer_1-2" data-name="Layer 1">
            <rect class="cls-1" width="254" height="254" />
            <path d="M116.83,131.32q-19.5,8.73-38,1-18.72-7.85-21.86-30.4T70.36,60.23q16.58-19.11,46.18-19.12a90,90,0,0,1,28,4.61A181.12,181.12,0,0,1,173.11,58q9.51,5,18.63,1.86,2-.78,2.94-1.08c1.44-.26,2.34.14,2.7,1.18s-.25,2.19-1.81,3.43q-7.06,5.1-14.22,10.05t-14,10.25c-1.64,1.31-3.43,1.34-5.39.09q-8.83-6.47-24.37-13.52a75.27,75.27,0,0,0-31.42-7.07q-18.63,0-30.45,10.59t-11.27,27q.54,16.43,14.36,25.54t35.4.68a4.68,4.68,0,0,1,2.94-.34,2.53,2.53,0,0,1,1.62,1.18,2.09,2.09,0,0,1,0,1.86A3.25,3.25,0,0,1,116.83,131.32Zm66.51,1.08a2.62,2.62,0,0,1-1.87.88,3.38,3.38,0,0,1-2.69-1.81,27.42,27.42,0,0,0-2.11-2.8q-8.23-8.23-14.22-3.33a1.43,1.43,0,0,0-.39,2.15,107.36,107.36,0,0,1,6.86,12.16,46.53,46.53,0,0,1,4.17,25.89A52.82,52.82,0,0,1,164.22,189a56.71,56.71,0,0,1-18.58,17,48.93,48.93,0,0,1-25,6.62q-17.34,0-29.9-8.19T77.15,180.93l1.77-8A80.92,80.92,0,0,1,81.07,165q3.54-10.09-.88-13.63a8.68,8.68,0,0,0-5.59-2q-2.94-.11-2.94-2.4c0-1.54,1-2.34,2.94-2.41a26.44,26.44,0,0,1,5.3.59c1.89.39,3.66.72,5.29,1q10.5,2.26,16.28,8.48T103.23,175q-3.83,13-1,22.06t18.09,9.9q13.44.59,20.89-7.55T150.59,178q1.36-9.23-4-20.59a121.76,121.76,0,0,0-14.41-22.85Q111.66,108.67,116,97.74t19-24v-.09a2.14,2.14,0,0,1,1.57-.49c1.63,0,2.45.78,2.45,2.35a2.62,2.62,0,0,1-.88,1.86q-8.34,8.82-.89,17.75,5.3,6.47,10.45,12.79t9.56,12.5a1.53,1.53,0,0,0,2.64.1q4.13-5.19,8.34-10.34l8.53-10.44c1.17-1.44,2.45-1.6,3.82-.49q3.53,2.94,6.91,5.93t6.92,5.93c.58.46,1.24,1,2,1.67a2.8,2.8,0,0,1,1.08,2.06,4,4,0,0,1-1.33,2.3c-.88.95-1.68,1.81-2.4,2.6Z" />
        </g>
    </g>
</svg>